<svg xmlns="http://www.w3.org/2000/svg" viewBox="0 0 280 60" fill="none">
  <g transform="scale(0.222) translate(-50, -380)">
    <path fill="#CD2320" d="M84.78,419.03s22.52,4.2,41.34,17.86c7.55,5.48,15.65,14.72,15.65,14.72,0,0,7.56-11.4,35.78-31.42s63.96-35.48,63.96-35.48c0,0-45.4,33.91-58.64,49.64-10.52,12.5-26.35,29.97-24.11,37.88,2.24,7.91,14.32,28.36,23.48,39.11,9.16,10.76,33.93,36.69,33.93,36.69,0,0-26.8-16.03-38.09-25.3-11.29-9.27-21.73-17.68-21.73-17.68,0,0-4.66,32.8-9.94,52.29-5.29,19.49-24.24,70.11-27.81,78.83,0,0,12.3-51.78,16.13-81.06,3.83-29.29,1.49-66.14,1.49-66.14,0,0-17.47,10.86-32.48,13.53-15.02,2.66-29.06,2.11-34.18,1,0,0,23.82-6.61,39.69-14.92,15.87-8.31,22.07-14.73,22.49-19.2s-7.16-18.02-21.75-29.31c-14.59-11.29-25.22-21.06-25.22-21.06Z"/>
  </g>
  <text x="55" y="38" font-family="system-ui, -apple-system, 'Segoe UI', sans-serif" font-size="28" letter-spacing="-0.5">
    <tspan font-style="italic" font-weight="600" fill="#171717">Sust</tspan>
    <tspan font-style="normal" font-weight="700" fill="#CD2320">ai</tspan>
    <tspan font-style="italic" font-weight="600" fill="#171717">nlabs</tspan>
  </text>
</svg>
